<?xml version="1.0" encoding="iso-8859-1"?>
<!-- Generator: Adobe Illustrator 18.0.0, SVG Export Plug-In . SVG Version: 6.00 Build 0)  -->
<!DOCTYPE svg PUBLIC "-//W3C//DTD SVG 1.1//EN" "http://www.w3.org/Graphics/SVG/1.1/DTD/svg11.dtd">
<svg version="1.1" id="Capa_1" xmlns="http://www.w3.org/2000/svg" xmlns:xlink="http://www.w3.org/1999/xlink" x="0px" y="0px"
	 viewBox="0 0 297 297" style="enable-background:new 0 0 297 297;" xml:space="preserve">
<path fill="#646770" d="M250.311,88.519c-0.12-0.052-0.245-0.101-0.366-0.153c0.87-1.851,1.185-3.943,0.849-6.015
	c-0.529-3.261-2.593-6.069-5.549-7.546c-27.043-13.521-53.862-17.675-68.038-18.951V28.707c0-3.893-2.199-7.451-5.681-9.192
	l-36.86-18.43c-3.183-1.594-6.968-1.423-9.998,0.45s-4.874,5.181-4.874,8.742v45.576c-14.176,1.276-40.995,5.429-68.038,18.951
	c-2.956,1.477-5.02,4.285-5.549,7.546c-0.336,2.072-0.021,4.164,0.849,6.015c-0.121,0.052-0.246,0.101-0.366,0.153
	C15.709,101.89,0,125.171,0,157.715c0,32.961,15.874,67.489,43.553,94.73C72.746,281.176,110.017,297,148.5,297
	s75.754-15.824,104.947-44.555C281.126,225.204,297,190.676,297,157.715C297,125.171,281.291,101.89,250.311,88.519z M130.07,75.843
	c5.675,0,10.277-4.601,10.277-10.277v-38.66l16.306,8.153v30.507c0,5.664,4.597,10.26,10.262,10.277
	c0.287,0.001,24.094,0.206,51.616,9.933c-7.88,3.366-18.912,6.374-33.172,6.374c-3.562,0-6.87,1.845-8.742,4.874
	c-1.872,3.03-2.042,6.812-0.45,9.999c3.916,7.831,9.173,19.827,12.87,30.774c-11.127-6.634-24.577-15.516-33.27-24.209
	c-2.007-2.006-4.637-3.01-7.267-3.01s-5.26,1.004-7.267,3.01c-8.691,8.691-22.138,17.572-33.263,24.205
	c3.696-10.942,8.949-22.936,12.863-30.77c1.593-3.186,1.422-6.969-0.45-9.999c-1.873-3.03-5.181-4.874-8.742-4.874
	c-14.266,0-25.301-3.01-33.176-6.372C105.986,76.05,129.796,75.844,130.07,75.843z M239.029,237.796
	c-25.324,24.924-57.475,38.65-90.529,38.65s-65.205-13.726-90.529-38.65c-23.43-23.059-37.417-52.996-37.417-80.081
	c0-27.349,14.49-45.046,46.495-54.625c7.405,3.537,17.074,6.911,29.008,8.561c-5.729,13.245-13.123,32.894-13.123,46.064
	c0,3.562,1.845,6.87,4.874,8.742c3.029,1.873,6.811,2.04,9.999,0.45c1.386-0.693,30.568-15.373,50.693-32.186
	c20.124,16.813,49.307,31.493,50.693,32.186c1.451,0.726,3.025,1.085,4.596,1.085c0.007-0.001,0.013-0.001,0.02,0
	c5.676,0,10.277-4.601,10.277-10.277c0-0.261-0.009-0.52-0.028-0.777c-0.279-13.156-7.498-32.3-13.115-45.287
	c11.934-1.65,21.603-5.024,29.008-8.561c32.005,9.579,46.495,27.276,46.495,54.625C276.446,184.8,262.459,214.737,239.029,237.796z"
	/>
<g>
</g>
<g>
</g>
<g>
</g>
<g>
</g>
<g>
</g>
<g>
</g>
<g>
</g>
<g>
</g>
<g>
</g>
<g>
</g>
<g>
</g>
<g>
</g>
<g>
</g>
<g>
</g>
<g>
</g>
</svg>
